<svg width="58" height="96" viewBox="0 0 58 96" fill="none" xmlns="http://www.w3.org/2000/svg">
<rect width="16.5935" height="14.875" transform="matrix(0.893924 -0.448218 0 1 -1.33337 14.1875)" fill="#6580E1"/>
<rect width="16.5935" height="16.5935" transform="matrix(0.893924 -0.448218 0.893924 0.448218 -16.1666 6.75)" fill="#BDCBFD"/>
<rect width="16.5935" height="14.875" transform="matrix(0.893924 -0.448218 0 1 13.5 36.5)" fill="#6580E1"/>
<rect width="16.5935" height="16.5935" transform="matrix(0.893924 -0.448218 0.893924 0.448218 -1.33337 29.0625)" fill="#BDCBFD"/>
<rect width="16.5935" height="14.875" transform="matrix(0.893924 -0.448218 0 1 28.3334 58.8125)" fill="#6580E1"/>
<rect width="16.5935" height="16.5935" transform="matrix(0.893924 -0.448218 0.893924 0.448218 13.5 51.375)" fill="#BDCBFD"/>
<rect width="16.5935" height="14.875" transform="matrix(0.893924 -0.448218 0 1 43.1666 81.125)" fill="#6580E1"/>
<rect width="16.5935" height="16.5935" transform="matrix(0.893924 -0.448218 0.893924 0.448218 28.3334 73.6875)" fill="#BDCBFD"/>
<path d="M-31 58.8125V-15.5625L-16.1667 -8.125V6.75L-1.33334 14.1875V29.0625L13.5 36.5V51.375L28.3333 58.8125V73.6875L43.1667 81.125V96L-31 58.8125Z" fill="#93AAFC"/>
</svg>
